<svg width="24" height="24" viewBox="0 0 24 24" fill="none" xmlns="http://www.w3.org/2000/svg">
<rect width="24" height="24" fill="#F5F5F5"/>
<g id="&#208;&#156;&#208;&#181;&#209;&#128;&#208;&#190;&#208;&#191;&#209;&#128;&#208;&#184;&#209;&#143;&#209;&#130;&#208;&#184;&#209;&#143;" clip-path="url(#clip0_117_2)">
<rect width="1920" height="1080" transform="translate(-34 -177)" fill="white"/>
<g id="Rectangle 1">
<mask id="path-1-inside-1_117_2" fill="white">
<path d="M-34 -177H145V903H-34V-177Z"/>
</mask>
<path d="M-34 -177H145V903H-34V-177Z" fill="white"/>
<path d="M144 -177V903H146V-177H144Z" fill="black" mask="url(#path-1-inside-1_117_2)"/>
</g>
<g id="Frame 738001166">
<g id="Frame 738001154">
<g id="Frame 738001148">
<g id="vuesax/linear/activity">
<g id="vuesax/linear/activity_2">
<g id="activity">
<path id="Vector" d="M9 22H15C20 22 22 20 22 15V9C22 4 20 2 15 2H9C4 2 2 4 2 9V15C2 20 4 22 9 22Z" stroke="black" stroke-width="1.5" stroke-linecap="round" stroke-linejoin="round"/>
<path id="Vector_2" d="M7.33008 14.4878L9.71008 11.3978C10.0501 10.9578 10.6801 10.8778 11.1201 11.2178L12.9501 12.6578C13.3901 12.9978 14.0201 12.9178 14.3601 12.4878L16.6701 9.50781" stroke="black" stroke-width="2" stroke-linecap="round" stroke-linejoin="round"/>
</g>
</g>
</g>
</g>
</g>
</g>
</g>
<defs>
<clipPath id="clip0_117_2">
<rect width="1920" height="1080" fill="white" transform="translate(-34 -177)"/>
</clipPath>
</defs>
</svg>
