<svg width="32" height="33" viewBox="0 0 32 33" fill="none" xmlns="http://www.w3.org/2000/svg">
<g id="vuesax/linear/clipboard-tick">
<g id="clipboard-tick">
<path id="Vector" d="M12.4136 20.099L14.4136 22.099L19.7469 16.7656" stroke="black" stroke-width="1.5" stroke-linecap="round" stroke-linejoin="round"/>
<path id="Vector_2" d="M13.3332 8.4974H18.6665C21.3332 8.4974 21.3332 7.16406 21.3332 5.83073C21.3332 3.16406 19.9998 3.16406 18.6665 3.16406H13.3332C11.9998 3.16406 10.6665 3.16406 10.6665 5.83073C10.6665 8.4974 11.9998 8.4974 13.3332 8.4974Z" stroke="black" stroke-width="1.5" stroke-miterlimit="10" stroke-linecap="round" stroke-linejoin="round"/>
<path id="Vector_3" d="M21.3333 5.85938C25.7733 6.09937 28 7.73937 28 13.8327V21.8327C28 27.166 26.6667 29.8327 20 29.8327H12C5.33333 29.8327 4 27.166 4 21.8327V13.8327C4 7.75271 6.22667 6.09937 10.6667 5.85938" stroke="black" stroke-width="1.5" stroke-miterlimit="10" stroke-linecap="round" stroke-linejoin="round"/>
</g>
</g>
</svg>
