<svg width="26" height="26" viewBox="0 0 26 26" fill="none" xmlns="http://www.w3.org/2000/svg">
<g id="vuesax/linear/edit">
<g id="edit">
<path id="Vector" d="M11.9165 2.16406H9.74984C4.33317 2.16406 2.1665 4.33073 2.1665 9.7474V16.2474C2.1665 21.6641 4.33317 23.8307 9.74984 23.8307H16.2498C21.6665 23.8307 23.8332 21.6641 23.8332 16.2474V14.0807" stroke="black" stroke-width="1.5" stroke-linecap="round" stroke-linejoin="round"/>
<path id="Vector_2" d="M17.3765 3.26779L8.83987 11.8045C8.51487 12.1295 8.18987 12.7686 8.12487 13.2345L7.65904 16.4953C7.4857 17.6761 8.31987 18.4995 9.5007 18.337L12.7615 17.8711C13.2165 17.8061 13.8557 17.4811 14.1915 17.1561L22.7282 8.61946C24.2015 7.14612 24.8949 5.43446 22.7282 3.26779C20.5615 1.10112 18.8499 1.79446 17.3765 3.26779Z" stroke="black" stroke-width="1.5" stroke-miterlimit="10" stroke-linecap="round" stroke-linejoin="round"/>
<path id="Vector_3" d="M16.1523 4.49219C16.8782 7.08135 18.904 9.10719 21.504 9.84385" stroke="black" stroke-width="1.5" stroke-miterlimit="10" stroke-linecap="round" stroke-linejoin="round"/>
</g>
</g>
</svg>
