<svg width="32" height="32" viewBox="0 0 32 32" fill="none" xmlns="http://www.w3.org/2000/svg">
<g id="icon-exit 1">
<g id="Group">
<path id="Vector" d="M4.48856 4.07795C3.32213 4.2983 2.33515 5.18436 2.08709 6.22983C1.97097 6.72209 1.97097 25.2873 2.08709 25.7749C2.36154 26.9235 3.45408 27.8049 4.78941 27.9643C5.05858 27.9924 7.48645 28.0065 11.8249 27.9971C18.0846 27.983 18.4646 27.9784 18.7391 27.894C19.6363 27.6314 20.3119 27.1298 20.6867 26.4547C21.0403 25.8124 21.0614 25.6718 21.0614 23.4214V21.443H20.0058H18.9502V23.3511C18.9502 24.5419 18.9291 25.3295 18.8921 25.442C18.8288 25.6483 18.5807 25.9155 18.3485 26.0281C18.1955 26.1031 17.6835 26.1078 11.6508 26.1218C7.12227 26.1312 5.04803 26.1171 4.90552 26.0843C4.78941 26.0562 4.5994 25.9577 4.48856 25.8687C4.08216 25.5452 4.11383 26.4031 4.12966 15.9109L4.14549 6.51112L4.27217 6.33297C4.34078 6.23452 4.49384 6.09856 4.60996 6.02824L4.82635 5.90166L11.4502 5.88759L18.0741 5.87822L18.3538 6.00011C18.5649 6.08918 18.6705 6.17357 18.7813 6.33766L18.9238 6.558L18.9396 8.55986L18.9555 10.5664H20.0111H21.0667L21.0508 8.44266L21.035 6.3236L20.8925 5.94854C20.5283 5.00152 19.6205 4.27017 18.5544 4.07326C18.016 3.97481 5.01108 3.97481 4.48856 4.07795Z" fill="black"/>
<path id="Vector_2" d="M22.9474 10.8936L22.2954 11.7872L23.3665 13.2553L24.4375 14.7234H18.4164H12.3999V16V17.2766H18.4164H24.4375L23.3665 18.7447L22.2954 20.2128L22.9474 21.1064L23.5993 22L25.7973 18.9872L27.9999 15.9681L25.8252 12.9872C24.6238 11.3404 23.6366 10 23.6226 10C23.6086 10 23.3059 10.4021 22.9474 10.8936Z" fill="black"/>
</g>
</g>
</svg>
