<svg width="54" height="54" viewBox="0 0 54 54" fill="none" xmlns="http://www.w3.org/2000/svg">
<g id="Group">
<g id="Group_2">
<path id="Vector" d="M41.6578 48.5799L38.8022 46.6955C35.1784 44.3038 30.279 45.9272 28.786 50.0004L27.6119 53.2184C22.9009 52.5951 23.7127 52.711 18.9872 52.0877L18.6828 48.6814C18.2914 44.3618 13.9718 41.5352 9.85515 42.9122L6.60822 43.9994C4.14403 39.9262 4.57888 40.622 2.11468 36.5633L4.59336 34.2006C7.72434 31.2001 7.24603 26.0542 3.59323 23.6915L0.723145 21.8361C2.37561 17.3716 2.08568 18.1398 3.73814 13.6898L7.13003 14.1536C11.4351 14.7334 15.1459 11.1531 14.7256 6.819L14.3922 3.41261C18.9147 1.9196 18.132 2.18051 22.64 0.6875L24.3939 3.63004C26.6262 7.35533 31.743 8.02211 34.8595 4.9926L37.3092 2.60088C41.2954 5.19553 40.5997 4.76067 44.5859 7.35533L43.3827 10.5588C41.8607 14.6175 44.5279 19.0385 48.833 19.5893L52.2249 20.0242C52.6742 24.7642 52.6017 23.9379 53.0511 28.6779L49.7897 29.736C45.6585 31.0841 43.8756 35.9255 46.1224 39.6363L47.9052 42.5643C44.4844 45.8693 45.0787 45.304 41.6433 48.5944L41.6578 48.5799Z" fill="black"/>
<path id="Vector_2" d="M27.5979 53.942C27.5979 53.942 27.5399 53.942 27.5109 53.942L18.8862 52.8114C18.5528 52.7679 18.2919 52.4925 18.2629 52.1591L17.9585 48.7527C17.7845 46.9118 16.8134 45.2738 15.2624 44.2737C13.7114 43.259 11.827 43.0126 10.0731 43.6069L6.82613 44.694C6.50723 44.7955 6.15937 44.665 5.98542 44.3896L1.49188 36.9536C1.31794 36.6636 1.3614 36.3013 1.60782 36.0548L4.08655 33.6921C5.42011 32.4165 6.08686 30.6191 5.91292 28.7927C5.73898 26.9518 4.75331 25.3283 3.20231 24.3137L0.332277 22.4583C0.0568664 22.2698 -0.0736087 21.922 0.0423534 21.6031L3.05735 13.4567C3.17331 13.1378 3.49221 12.9494 3.8256 12.9929L7.21753 13.4567C9.04394 13.7031 10.8558 13.1088 12.1894 11.8332C13.523 10.5432 14.1753 8.76025 14.0013 6.91935L13.6679 3.51296C13.6389 3.17957 13.8418 2.86067 14.1607 2.75921L22.4086 0.0340944C22.7274 -0.0673725 23.0754 0.063084 23.2493 0.352989L25.0032 3.29553C25.9454 4.87551 27.5544 5.93367 29.3808 6.1656C31.2217 6.41202 33.0191 5.80321 34.3527 4.51313L36.8023 2.12141C37.0488 1.88949 37.4112 1.846 37.7011 2.03444L44.9777 6.78889C45.2531 6.97733 45.3691 7.32522 45.2531 7.64411L44.05 10.8476C43.3977 12.5725 43.5717 14.4714 44.5284 16.0659C45.485 17.6459 47.0795 18.6895 48.9204 18.9214L52.3123 19.3563C52.6457 19.3998 52.9066 19.6607 52.9356 20.0086L53.7618 28.6623C53.7908 28.9957 53.5879 29.3145 53.269 29.416L50.0076 30.4742C48.2536 31.0395 46.8766 32.3731 46.2388 34.098C45.601 35.8374 45.7749 37.7363 46.7461 39.3018L48.5291 42.2298C48.703 42.5197 48.6595 42.8821 48.4131 43.1285L42.1511 49.1586C41.9047 49.3905 41.5423 49.4195 41.2524 49.2455L38.3968 47.3612C36.8603 46.3465 34.9615 46.1001 33.2075 46.6654C31.4536 47.2452 30.0766 48.5788 29.4533 50.3037L28.2792 53.5217C28.1777 53.8116 27.9023 54 27.5979 54V53.942ZM19.6399 51.4633L27.1195 52.4345L28.0907 49.7529C28.8735 47.6076 30.5694 45.9551 32.7437 45.2449C34.918 44.5201 37.2662 44.839 39.1796 46.1001L41.5568 47.6656L46.9781 42.4328L45.4995 39.9976C44.3109 38.0407 44.079 35.6925 44.8762 33.5472C45.6735 31.4019 47.3694 29.7639 49.5582 29.0536L52.2688 28.1694L51.5586 20.6609L48.732 20.2985C46.4562 20.0086 44.4704 18.7185 43.2962 16.7616C42.1076 14.8048 41.8902 12.442 42.7019 10.2967L43.7021 7.62962L37.3822 3.49847L35.3384 5.48432C33.7004 7.0788 31.4536 7.83255 29.1779 7.52815C26.9021 7.23824 24.9307 5.93367 23.7566 3.96231L22.2926 1.51261L15.1319 3.87534L15.4074 6.71641C15.6393 8.99217 14.813 11.21 13.1751 12.8044C11.5226 14.3989 9.27584 15.1237 7.01458 14.8193L4.18798 14.4424L1.56434 21.5161L3.95609 23.0671C5.88397 24.3137 7.10154 26.3285 7.31896 28.6188C7.53639 30.8945 6.71017 33.1123 5.05771 34.6923L2.9994 36.6637L6.89863 43.114L9.59473 42.2153C11.769 41.4906 14.1173 41.795 16.0306 43.0416C17.944 44.2882 19.1616 46.3175 19.379 48.6078L19.6399 51.4488V51.4633Z" fill="black"/>
</g>
<g id="Group_3">
<path id="Vector_3" d="M36.657 26.9562C36.657 32.3629 32.2794 36.7405 26.8727 36.7405C21.466 36.7405 17.0884 32.3629 17.0884 26.9562C17.0884 21.5495 21.466 17.1719 26.8727 17.1719C32.2794 17.1719 36.657 21.5495 36.657 26.9562Z" fill="white"/>
<path id="Vector_4" d="M26.8728 37.4478C21.0747 37.4478 16.3638 32.7369 16.3638 26.9388C16.3638 21.1406 21.0747 16.4297 26.8728 16.4297C32.671 16.4297 37.3819 21.1406 37.3819 26.9388C37.3819 32.7369 32.671 37.4478 26.8728 37.4478ZM26.8728 17.8647C21.872 17.8647 17.7988 21.9379 17.7988 26.9388C17.7988 31.9396 21.872 36.0128 26.8728 36.0128C31.8737 36.0128 35.9469 31.9396 35.9469 26.9388C35.9469 21.9379 31.8737 17.8647 26.8728 17.8647Z" fill="black"/>
</g>
</g>
</svg>
