<svg width="24" height="24" viewBox="0 0 24 24" fill="none" xmlns="http://www.w3.org/2000/svg">
<g id="vuesax/linear/home-trend-up">
<g id="vuesax/linear/home-trend-up_2">
<g id="home-trend-up">
<path id="Vector" d="M9.02 2.83821L3.63 7.03821C2.73 7.73821 2 9.22821 2 10.3582V17.7682C2 20.0882 3.89 21.9882 6.21 21.9882H17.79C20.11 21.9882 22 20.0882 22 17.7782V10.4982C22 9.28821 21.19 7.73821 20.2 7.04821L14.02 2.71821C12.62 1.73821 10.37 1.78821 9.02 2.83821Z" stroke="black" stroke-width="1.5" stroke-linecap="round" stroke-linejoin="round"/>
</g>
</g>
<g id="Path">
<mask id="path-2-inside-1_1275_28453" fill="white">
<path d="M16.725 16H6.825C6.36937 16 6 16.3693 6 16.8249C6 17.2805 6.36937 17.6499 6.825 17.6499H16.725C17.1806 17.6499 17.55 17.2805 17.55 16.8249C17.55 16.3693 17.1806 16 16.725 16Z"/>
</mask>
<path d="M16.725 14H6.825V18H16.725V14ZM6.825 14C5.26496 14 4 15.2646 4 16.8249H8C8 17.4741 7.47377 18 6.825 18V14ZM4 16.8249C4 18.3853 5.26496 19.6499 6.825 19.6499V15.6499C7.47377 15.6499 8 16.1758 8 16.8249H4ZM6.825 19.6499H16.725V15.6499H6.825V19.6499ZM16.725 19.6499C18.285 19.6499 19.55 18.3853 19.55 16.8249H15.55C15.55 16.1758 16.0762 15.6499 16.725 15.6499V19.6499ZM19.55 16.8249C19.55 15.2646 18.285 14 16.725 14V18C16.0762 18 15.55 17.4741 15.55 16.8249H19.55Z" fill="black" mask="url(#path-2-inside-1_1275_28453)"/>
</g>
</g>
</svg>
