<svg width="16" height="16" viewBox="0 0 16 16" fill="none" xmlns="http://www.w3.org/2000/svg">
<g id="Icon close">
<path id="Path" fill-rule="evenodd" clip-rule="evenodd" d="M15.2742 1.92262C15.5753 1.59733 15.5753 1.06925 15.2742 0.743964C14.8729 0.418679 14.3712 0.418679 14.0702 0.743964L7.94983 6.82097L1.92977 0.743964C1.52843 0.418679 1.02676 0.418679 0.725753 0.743964C0.424749 1.06925 0.424749 1.59733 0.725753 1.92262L6.84615 7.99962L0.725753 14.0776C0.424749 14.4029 0.424749 14.93 0.725753 15.2553C1.02676 15.5816 1.52843 15.5816 1.92977 15.2553L7.94983 9.17828L14.0702 15.2553C14.3712 15.5816 14.8729 15.5816 15.2742 15.2553C15.5753 14.93 15.5753 14.4029 15.2742 14.0776L9.15385 7.99962L15.2742 1.92262Z" fill="black"/>
</g>
</svg>
