<svg width="66" height="92" viewBox="0 0 66 92" fill="none" xmlns="http://www.w3.org/2000/svg">
<path d="M2.36865 56.9062C3.5336 59.3034 4.89931 61.5977 6.45115 63.7646" stroke="#414141" stroke-width="1.5" stroke-linecap="round" stroke-linejoin="round"/>
<path d="M5.83195 54.2611C3.55734 49.3846 2.28003 43.9804 2 38.5625" stroke="#414141" stroke-width="1.5" stroke-linecap="round" stroke-linejoin="round"/>
<path d="M9.91072 61.2875C8.58411 59.4546 7.41402 57.5134 6.41284 55.4844" stroke="#414141" stroke-width="1.5" stroke-linecap="round" stroke-linejoin="round"/>
<path d="M30.1945 1C22.2358 4.13539 15.6527 9.93258 11.2313 17.4984C8.57837 22.1165 7.10454 26.8329 6.41676 32.0405C5.43421 40.6872 7.10454 49.1373 12.0173 56.7031C12.2138 56.9979 12.3121 57.3909 12.6068 57.784C12.8033 57.9805 12.9998 58.177 13.0981 58.4718C13.2056 58.5688 13.2962 58.683 13.3663 58.8098" stroke="#CDFF00" stroke-width="1.5" stroke-linecap="round" stroke-linejoin="round"/>
<path d="M34.1738 4.06742C36.3977 3.30303 38.7081 2.81849 41.0517 2.625" stroke="#CDFF00" stroke-width="1.5" stroke-linecap="round" stroke-linejoin="round"/>
<path d="M12.3318 25.3381C13.6464 21.6082 15.5924 18.132 18.0846 15.0614C21.9302 10.2892 27.0049 6.65652 32.762 4.55469" stroke="#CDFF00" stroke-width="1.5" stroke-linecap="round" stroke-linejoin="round"/>
<path d="M12.8472 48.9481C9.9438 42.2116 9.64903 34.6458 11.6141 27.473C11.7124 27.1782 11.9089 26.8834 11.9089 26.625" stroke="#CDFF00" stroke-width="1.5" stroke-linecap="round" stroke-linejoin="round"/>
<path d="M16.8285 56.3335C15.4697 54.4666 14.3417 52.4395 13.3552 50.3516" stroke="#D4F21D" stroke-width="1.5" stroke-linecap="round" stroke-linejoin="round"/>
<path d="M20.9191 18.375C16.5271 23.7379 14.4638 30.7142 14.6603 37.6904L14.955 40.9329C15.1515 42.0138 15.3481 43.0946 15.6428 44.1754C16.1341 46.1406 16.9201 47.9092 17.8044 49.6778C18.4922 51.1517 19.3765 52.5273 20.2883 53.8577" stroke="#CDFF00" stroke-width="1.5" stroke-linecap="round" stroke-linejoin="round"/>
<path d="M40.4474 6.99219C34.8442 7.79272 29.5754 10.1407 25.2336 13.7719C24.0113 14.7958 22.8755 15.9188 21.8379 17.1294" stroke="#CDFF00" stroke-width="1.5" stroke-linecap="round" stroke-linejoin="round"/>
<path d="M47.784 6.8887C46.2001 6.80125 43.225 6.73738 41.644 6.84743" stroke="#CDFF00" stroke-width="1.5" stroke-linecap="round" stroke-linejoin="round"/>
<path d="M48.5759 6.98888C48.3139 6.95089 48.0499 6.91814 47.7839 6.89062" stroke="#CDFF00" stroke-width="1.5" stroke-linecap="round" stroke-linejoin="round"/>
<path d="M50.616 11.7109C51.7443 11.9964 52.8549 12.3481 53.9419 12.7643" stroke="#CDFF00" stroke-width="1.5" stroke-linecap="round" stroke-linejoin="round"/>
<path d="M25.6013 19.2851C31.364 12.8384 40.6982 9.59592 49.2808 11.4019" stroke="#CDFF00" stroke-width="1.5" stroke-linecap="round" stroke-linejoin="round"/>
<path d="M21.8125 24.8515C22.5985 23.2273 24.4379 20.6588 25.5993 19.2812" stroke="#CDFF00" stroke-width="1.5" stroke-linecap="round" stroke-linejoin="round"/>
<path d="M23.748 51.3881C18.5906 44.1819 17.5098 34.1596 21.1089 26.1094" stroke="#D4F21D" stroke-width="1.5" stroke-linecap="round" stroke-linejoin="round"/>
<path d="M38.6729 16.0547C32.0515 17.8361 26.7457 22.9455 24.3876 29.4305C22.1277 35.9155 23.2085 43.383 27.2065 48.8992" stroke="#CDFF00" stroke-width="1.5" stroke-linecap="round" stroke-linejoin="round"/>
<path d="M58.363 20.3876C56.4951 18.7808 54.3615 17.512 52.058 16.6381C48.1533 15.1544 43.8984 14.8523 39.8232 15.7695" stroke="#CDFF00" stroke-width="1.5" stroke-linecap="round" stroke-linejoin="round"/>
<path d="M27.4858 36.1874C27.5546 32.7042 28.6908 29.3261 30.741 26.5094C32.7912 23.6928 35.6566 21.5734 38.95 20.4375C42.2434 19.3017 45.8061 19.2042 49.1567 20.1582C52.5073 21.1122 55.4843 23.0718 57.6855 25.7721C57.9122 26.0512 58.1306 26.3371 58.3409 26.6299" stroke="#CD8CFF" stroke-width="1.5" stroke-linecap="round" stroke-linejoin="round"/>
<path d="M30.666 46.4345C28.8089 43.7874 27.6299 40.7414 27.51 37.5156" stroke="#CD8CFF" stroke-width="1.5" stroke-linecap="round" stroke-linejoin="round"/>
<path d="M54.8808 29.1078C53.9093 27.7352 52.676 26.5681 51.252 25.6737C49.8279 24.7793 48.2412 24.1751 46.5829 23.8959C44.9246 23.6167 43.2275 23.668 41.5891 24.0468C39.9506 24.4256 38.4033 25.1245 37.0358 26.1033C35.6684 27.0821 34.5079 28.3215 33.621 29.7503C32.7341 31.179 32.1383 32.769 31.8678 34.4288C31.5973 36.0886 31.6576 37.7854 32.045 39.4219C32.4324 41.0583 33.1395 42.602 34.1254 43.9643" stroke="#CD8CFF" stroke-width="1.5" stroke-linecap="round" stroke-linejoin="round"/>
<path d="M40.1646 29.2095C41.7789 28.1631 43.744 27.8683 45.7091 28.0648C47.9689 28.4579 50.1306 29.637 51.4226 31.5775" stroke="#CD8CFF" stroke-width="1.5" stroke-linecap="round" stroke-linejoin="round"/>
<path d="M37.5851 41.4826C35.9816 39.1686 35.4903 36.2209 36.4728 33.5679C37.0624 32.1923 37.8484 30.8167 39.0854 29.9688" stroke="#CD8CFF" stroke-width="1.5" stroke-linecap="round" stroke-linejoin="round"/>
<path d="M47.9626 34.0545C47.6393 33.5955 47.2284 33.205 46.7535 32.9056C46.2786 32.6062 45.7492 32.4037 45.1957 32.3099C44.6422 32.216 44.0756 32.2326 43.5285 32.3588C42.9815 32.4849 42.4648 32.7181 42.0083 33.0448C41.5518 33.3715 41.1645 33.7854 40.8686 34.2625C40.5728 34.7397 40.3743 35.2706 40.2846 35.8248C40.1949 36.379 40.2158 36.9455 40.3461 37.4916C40.4763 38.0377 40.7133 38.5526 41.0435 39.0066" stroke="#CD8CFF" stroke-width="1.5" stroke-linecap="round" stroke-linejoin="round"/>
<path d="M63.9991 37.114C62.6235 33.4195 60.7567 29.784 58.3406 26.625" stroke="#CD8CFF" stroke-width="1.5" stroke-linecap="round" stroke-linejoin="round"/>
<path d="M60.3845 68.1719C57.598 76.1062 52.3905 83.1807 45.5273 88.1014" stroke="#414141" stroke-width="1.5" stroke-linecap="round" stroke-linejoin="round"/>
<path d="M61.913 44.6641C63.5818 52.0259 63.2109 59.7036 60.8401 66.8702" stroke="#CD8CFF" stroke-width="1.5" stroke-linecap="round" stroke-linejoin="round"/>
<path d="M54.8811 29.1016C57.3031 31.7987 58.5804 35.2377 60.0542 38.4802C60.6438 40.0523 61.0368 41.7227 61.4868 43.2948" stroke="#CD8CFF" stroke-width="1.5" stroke-linecap="round" stroke-linejoin="round"/>
<path d="M58.1875 59.9205C59.7596 50.0751 57.2049 39.6598 51.4226 31.5781" stroke="#CD8CFF" stroke-width="1.5" stroke-linecap="round" stroke-linejoin="round"/>
<path d="M45.7747 82.4893C46.6305 81.8625 48.2468 80.3169 49.4425 78.8636C50.1942 77.9489 56.6151 67.7606 57.919 61.4062" stroke="#414141" stroke-width="1.5" stroke-linecap="round" stroke-linejoin="round"/>
<path d="M28.7996 91.2581C28.9862 91.154 33.8351 89.632 33.9187 89.5799C34.1496 89.4345 36.9302 88.3576 39.2323 86.8719C41.1168 85.6555 42.8314 84.6749 44.599 83.3828" stroke="#414141" stroke-width="1.5" stroke-linecap="round" stroke-linejoin="round"/>
<path d="M54.2619 50.7344C54.5567 54.5055 54.3602 58.3837 53.3983 62.0546C52.4892 65.4792 51.0998 68.7579 49.2715 71.7929C47.5029 74.722 45.2431 77.2668 42.6885 79.5336C40.2547 81.6953 37.5399 83.5406 34.5716 84.8877C31.2586 86.4042 27.7175 87.362 24.0917 87.7224C23.6515 87.7646 20.8631 87.7971 20.4199 87.8207" stroke="#414141" stroke-width="1.5" stroke-linecap="round" stroke-linejoin="round"/>
<path d="M53.4751 46.1016C53.7276 47.1627 53.99 48.2288 54.0479 49.3224" stroke="#CD8CFF" stroke-width="1.5" stroke-linecap="round" stroke-linejoin="round"/>
<path d="M47.9629 34.0547C50.3269 37.2972 51.9972 40.9327 53.0437 44.7274" stroke="#CD8CFF" stroke-width="1.5" stroke-linecap="round" stroke-linejoin="round"/>
<path d="M47.568 41.7861C46.7161 39.9408 45.653 38.2036 44.5034 36.5312" stroke="#CD8CFF" stroke-width="1.5" stroke-linecap="round" stroke-linejoin="round"/>
<path d="M14.738 83.1313C17.9146 83.7277 21.0588 83.7277 24.2029 83.4329C26.042 83.2389 27.8542 82.8435 29.607 82.2539C31.7686 81.5661 33.7337 80.5835 35.797 79.4044C40.2185 76.8497 43.6575 73.2142 46.2121 68.7926C47.7842 65.9431 48.865 63.1919 49.5528 60.0477C49.651 59.7529 49.651 59.3599 49.651 59.0651C50.044 57.493 50.1423 55.9209 50.2405 54.3488C50.3388 52.2853 49.9458 50.3202 49.651 48.2568C49.3562 46.4882 48.6685 44.8178 48.0475 43.1562" stroke="#414141" stroke-width="1.5" stroke-linecap="round" stroke-linejoin="round"/>
<path d="M24.8758 79.0102C21.079 79.6798 17.1814 79.5037 13.4605 78.4944C12.4638 78.2231 11.4847 77.891 10.5286 77.5" stroke="#414141" stroke-width="1.5" stroke-linecap="round" stroke-linejoin="round"/>
<path d="M45.3995 58.7891C44.4508 63.5927 42.1461 68.0241 38.758 71.559C35.3698 75.0938 31.0401 77.5841 26.281 78.7353" stroke="#414141" stroke-width="1.5" stroke-linecap="round" stroke-linejoin="round"/>
<path d="M41.0437 39.0078C42.4448 41.0094 43.5769 43.1865 44.4109 45.483C45.2747 47.8976 45.7609 50.431 45.8523 52.9938C45.9066 54.4766 45.8313 55.9613 45.6273 57.4311" stroke="#CD8CFF" stroke-width="1.5" stroke-linecap="round" stroke-linejoin="round"/>
<path d="M36.1575 68.0414C38.652 65.2549 40.3652 61.8583 41.1233 58.196C41.7 55.4393 41.7216 52.5954 41.1868 49.8303C40.6521 47.0652 39.5716 44.4344 38.0086 42.0916C37.873 41.8862 37.7325 41.6838 37.59 41.4844" stroke="#CD8CFF" stroke-width="1.5" stroke-linecap="round" stroke-linejoin="round"/>
<path d="M6.90015 70.417C11.0377 73.8069 16.4417 75.4773 21.7475 75.0842C26.7585 74.7894 31.3765 72.5295 35.0944 69.1406" stroke="#414141" stroke-width="1.5" stroke-linecap="round" stroke-linejoin="round"/>
<path d="M36.6312 49.0938C38.1433 54.3938 37.1608 60.1909 33.5254 64.6125C31.8642 66.6659 29.747 68.3035 27.342 69.3951C24.937 70.4868 22.3106 71.0024 19.6714 70.901C14.4639 70.6062 9.45286 68.0515 6.45117 63.7616" stroke="#414141" stroke-width="1.5" stroke-linecap="round" stroke-linejoin="round"/>
<path d="M34.1257 43.9609C34.9597 45.1245 35.6443 46.3882 36.1635 47.7222" stroke="#CD8CFF" stroke-width="1.5" stroke-linecap="round" stroke-linejoin="round"/>
<path d="M27.9436 64.0443C33.5255 60.2889 34.7045 51.7405 30.6663 46.4297" stroke="#CD8CFF" stroke-width="1.5" stroke-linecap="round" stroke-linejoin="round"/>
<path d="M20.6841 66.6229C22.8329 66.6769 24.8835 65.9017 26.7454 64.8906" stroke="#414141" stroke-width="1.5" stroke-linecap="round" stroke-linejoin="round"/>
<path d="M9.91064 61.2891C12.0074 64.3213 15.5446 66.2864 19.3127 66.595" stroke="#414141" stroke-width="1.5" stroke-linecap="round" stroke-linejoin="round"/>
<path d="M27.2064 48.9062C27.8567 49.8148 28.3217 50.8426 28.5748 51.9309C28.8279 53.0192 28.8642 54.1467 28.6816 55.249C28.499 56.3514 28.1011 57.4069 27.5105 58.3554C26.92 59.304 26.1484 60.1269 25.2398 60.7772C24.3313 61.4275 23.3035 61.8926 22.2152 62.1457C21.127 62.3988 19.9995 62.4351 18.8972 62.2525C16.671 61.8837 14.6825 60.6456 13.3691 58.8106" stroke="#CD8CFF" stroke-width="1.5" stroke-linecap="round" stroke-linejoin="round"/>
<path d="M16.8289 56.335C17.1521 56.794 17.5631 57.1844 18.038 57.4838C18.5128 57.7832 19.0423 57.9857 19.5958 58.0796C20.1493 58.1734 20.7159 58.1568 21.2629 58.0307C21.8099 57.9045 22.3266 57.6714 22.7831 57.3446C23.2396 57.0179 23.627 56.604 23.9228 56.1269C24.2187 55.6498 24.4171 55.1188 24.5068 54.5646C24.5965 54.0104 24.5756 53.444 24.4454 52.8979C24.3152 52.3518 24.0781 51.8369 23.748 51.3828" stroke="#D4F21D" stroke-width="1.5" stroke-linecap="round" stroke-linejoin="round"/>
</svg>
