<svg width="22" height="22" viewBox="0 0 22 22" fill="none" xmlns="http://www.w3.org/2000/svg">
<g id="Interface essential/Setting">
<g id="Icon">
<path fill-rule="evenodd" clip-rule="evenodd" d="M19.3358 7.5511C19.5496 8.0718 20.0563 8.41244 20.6194 8.41407C21.3837 8.42024 22 9.04126 22 9.8052V12.206C22 12.9743 21.3769 13.5971 20.6082 13.5971C20.045 13.5988 19.5384 13.9394 19.3246 14.4601C19.1108 14.9808 19.232 15.579 19.6316 15.9755C20.1677 16.5246 20.1677 17.4009 19.6316 17.95L17.948 19.6328C17.3986 20.1687 16.5218 20.1687 15.9724 19.6328C15.719 19.3645 15.3651 19.214 14.9959 19.2177C14.6248 19.2148 14.2679 19.36 14.0045 19.6212C13.741 19.8824 13.5928 20.238 13.5929 20.6089C13.5929 21.3772 12.9697 22 12.201 22H9.79898C9.03029 22 8.40714 21.3772 8.40714 20.6089C8.40715 20.238 8.25898 19.8824 7.99552 19.6212C7.73207 19.36 7.37516 19.2148 7.00408 19.2177C6.63492 19.214 6.28095 19.3645 6.02755 19.6328C5.47817 20.1687 4.60142 20.1687 4.05204 19.6328L2.36837 17.95C1.83225 17.4009 1.83225 16.5246 2.36837 15.9755C2.76801 15.579 2.88921 14.9808 2.67542 14.4601C2.46162 13.9394 1.95497 13.5988 1.39184 13.5971C1.0227 13.5971 0.66868 13.4506 0.40766 13.1897C0.146639 12.9288 0 12.575 0 12.206V9.8052C0 9.0369 0.623146 8.41407 1.39184 8.41407C1.95497 8.41244 2.46162 8.0718 2.67542 7.5511C2.88921 7.03039 2.76801 6.43223 2.36837 6.0357C1.83225 5.48659 1.83225 4.6103 2.36837 4.06119L4.05204 2.37838C4.60142 1.84253 5.47817 1.84253 6.02755 2.37838C6.28095 2.64672 6.63492 2.79718 7.00408 2.79347C7.37711 2.79649 7.73575 2.64971 7.99953 2.38607C8.26331 2.12242 8.41016 1.76397 8.40714 1.39113C8.40714 0.622829 9.03029 0 9.79898 0H12.2122C12.9809 0 13.6041 0.622829 13.6041 1.39113C13.6011 1.76397 13.7479 2.12242 14.0117 2.38607C14.2755 2.64971 14.6341 2.79649 15.0071 2.79347C15.3763 2.79718 15.7303 2.64672 15.9837 2.37838C16.5331 1.84253 17.4098 1.84253 17.9592 2.37838L19.6429 4.06119C20.179 4.6103 20.179 5.48659 19.6429 6.0357C19.2432 6.43223 19.122 7.03039 19.3358 7.5511ZM17.7347 13.8103C18.1729 12.7425 19.1762 12.0132 20.3276 11.9255L20.2939 10.0857C19.155 9.98586 18.1674 9.25851 17.7347 8.20092C17.3108 7.14083 17.5049 5.93362 18.2398 5.05966L16.949 3.76951C16.4016 4.22769 15.7099 4.478 14.9959 4.47629C13.4052 4.47239 12.076 3.26506 11.9204 1.68281H10.0796C9.92901 3.26757 8.59678 4.47763 7.00408 4.47629C6.29009 4.478 5.59842 4.22769 5.05102 3.76951L3.79388 5.05966C4.51733 5.94029 4.69841 7.1469 4.26531 8.20092C3.83257 9.25851 2.84495 9.98586 1.70612 10.0857V11.9255C2.84495 12.0254 3.83257 12.7527 4.26531 13.8103C4.68919 14.8704 4.49507 16.0776 3.7602 16.9516L5.05102 18.2417C5.59842 17.7835 6.29009 17.5332 7.00408 17.5349C8.59476 17.5388 9.92399 18.7462 10.0796 20.3284H11.9204C12.0607 18.7385 13.3991 17.5229 14.9959 17.5349C15.7099 17.5332 16.4016 17.7835 16.949 18.2417L18.2061 16.9516C17.4827 16.0709 17.3016 14.8643 17.7347 13.8103Z" fill="black"/>
<path fill-rule="evenodd" clip-rule="evenodd" d="M7.11633 11.0056C7.11633 8.86181 8.85511 7.12392 11 7.12392C12.03 7.12392 13.0178 7.53288 13.7462 8.26084C14.4745 8.9888 14.8837 9.97612 14.8837 11.0056C14.8837 13.1494 13.1449 14.8873 11 14.8873C8.85511 14.8873 7.11633 13.1494 7.11633 11.0056ZM8.7551 11.0056C8.7551 12.2448 9.76018 13.2494 11 13.2494C12.2398 13.2494 13.2449 12.2448 13.2449 11.0056C13.2449 9.76642 12.2398 8.76186 11 8.76186C9.76018 8.76186 8.7551 9.76642 8.7551 11.0056Z" fill="black"/>
</g>
</g>
</svg>
