<svg width="24" height="24" viewBox="0 0 24 24" fill="none" xmlns="http://www.w3.org/2000/svg">
<mask id="path-1-inside-1_1637_39676" fill="white">
<path fill-rule="evenodd" clip-rule="evenodd" d="M24 12C24 18.6274 18.6274 24 12 24C5.37258 24 0 18.6274 0 12C0 5.37258 5.37258 0 12 0C18.6274 0 24 5.37258 24 12ZM8.03576 10.9008C6.83367 11.4256 5.59854 11.9649 4.46913 12.587L4.46905 12.5871C3.8793 13.0189 4.66319 13.3243 5.39853 13.6107C5.51543 13.6563 5.63111 13.7014 5.73985 13.7464C5.83033 13.7742 5.92235 13.8035 6.01559 13.8332C6.83343 14.0938 7.74537 14.3843 8.53935 13.9472C9.84363 13.198 11.0745 12.3318 12.3044 11.4662C12.7074 11.1827 13.1102 10.8991 13.5155 10.6198C13.5345 10.6077 13.556 10.5938 13.5794 10.5786C13.9247 10.3548 14.7012 9.85146 14.414 10.545C13.7347 11.2878 13.0072 11.9454 12.2757 12.6065C11.7827 13.052 11.288 13.4992 10.805 13.9752C10.3843 14.317 9.94747 15.0044 10.4185 15.483C11.5035 16.2426 12.6054 16.9837 13.7066 17.7244C14.065 17.9654 14.4233 18.2064 14.7809 18.4479C15.387 18.9318 16.3343 18.5404 16.4675 17.7842C16.5268 17.4364 16.5863 17.0886 16.6458 16.7408C16.9745 14.8184 17.3035 12.8954 17.594 10.9667C17.6335 10.6642 17.6783 10.3617 17.7231 10.059C17.8316 9.32549 17.9403 8.59104 17.9742 7.85354C17.8867 7.11757 16.9944 7.27939 16.4977 7.44488C13.9451 8.41618 11.418 9.45948 8.90093 10.5212C8.61579 10.6475 8.32674 10.7737 8.03576 10.9008Z"/>
</mask>
<path d="M4.46913 12.587L3.74543 11.2731L3.50382 11.4062L3.32536 11.6165L4.46913 12.587ZM8.03576 10.9008L8.63597 12.2754H8.63597L8.03576 10.9008ZM4.46905 12.5871L5.35515 13.7974L5.49815 13.6927L5.61281 13.5575L4.46905 12.5871ZM5.39853 13.6107L4.854 15.0084L4.854 15.0084L5.39853 13.6107ZM5.73985 13.7464L5.16602 15.1323L5.23149 15.1594L5.29923 15.1802L5.73985 13.7464ZM6.01559 13.8332L6.47094 12.404L6.47093 12.404L6.01559 13.8332ZM8.53935 13.9472L9.2627 15.2613L9.27466 15.2547L9.28651 15.2479L8.53935 13.9472ZM12.3044 11.4662L11.4412 10.2395V10.2396L12.3044 11.4662ZM13.5155 10.6198L12.7071 9.35636L12.6855 9.37017L12.6644 9.38471L13.5155 10.6198ZM13.5794 10.5786L14.3953 11.8373L14.3953 11.8373L13.5794 10.5786ZM14.414 10.545L15.5209 11.5573L15.6989 11.3626L15.7998 11.1189L14.414 10.545ZM12.2757 12.6065L13.2815 13.7193L13.2815 13.7193L12.2757 12.6065ZM10.805 13.9752L11.7508 15.1394L11.8066 15.0941L11.8579 15.0436L10.805 13.9752ZM10.4185 15.483L9.34942 16.5352L9.44576 16.6331L9.55826 16.7118L10.4185 15.483ZM13.7066 17.7244L12.8695 18.969L12.8695 18.969L13.7066 17.7244ZM14.7809 18.4479L15.7168 17.2757L15.6701 17.2384L15.6205 17.2049L14.7809 18.4479ZM16.4675 17.7842L17.9448 18.0446L17.9462 18.0362L16.4675 17.7842ZM16.6458 16.7408L18.1243 16.9937L16.6458 16.7408ZM17.594 10.9667L19.0773 11.1902L19.0795 11.1756L19.0814 11.1609L17.594 10.9667ZM17.7231 10.059L16.2392 9.83946V9.83947L17.7231 10.059ZM17.9742 7.85354L19.4726 7.92248L19.4783 7.7991L19.4637 7.67645L17.9742 7.85354ZM16.4977 7.44488L16.0235 6.02181L15.9937 6.03175L15.9643 6.04294L16.4977 7.44488ZM8.90093 10.5212L8.31797 9.13909L8.3056 9.14431L8.29333 9.14974L8.90093 10.5212ZM12 25.5C19.4558 25.5 25.5 19.4558 25.5 12H22.5C22.5 17.799 17.799 22.5 12 22.5V25.5ZM-1.5 12C-1.5 19.4558 4.54416 25.5 12 25.5V22.5C6.20101 22.5 1.5 17.799 1.5 12H-1.5ZM12 -1.5C4.54416 -1.5 -1.5 4.54416 -1.5 12H1.5C1.5 6.20101 6.20101 1.5 12 1.5V-1.5ZM25.5 12C25.5 4.54416 19.4558 -1.5 12 -1.5V1.5C17.799 1.5 22.5 6.20101 22.5 12H25.5ZM5.19282 13.9009C6.2513 13.3178 7.42163 12.8056 8.63597 12.2754L7.43555 9.52607C6.24571 10.0456 4.94577 10.6119 3.74543 11.2731L5.19282 13.9009ZM5.61281 13.5575L5.61289 13.5574L3.32536 11.6165L3.32528 11.6166L5.61281 13.5575ZM5.94306 12.2131C5.75091 12.1382 5.60231 12.0799 5.4771 12.0234C5.33803 11.9606 5.32016 11.9402 5.35626 11.9682C5.37809 11.9851 5.46193 12.0521 5.54875 12.1792C5.64185 12.3155 5.75499 12.5477 5.76172 12.8562C5.76859 13.1713 5.6613 13.4201 5.55665 13.5767C5.46185 13.7186 5.36956 13.7868 5.35515 13.7974L3.58294 11.3768C3.30706 11.5788 2.7441 12.0813 2.76243 12.9216C2.77984 13.7197 3.31731 14.1833 3.5175 14.3386C3.76778 14.5327 4.04689 14.6693 4.24318 14.7579C4.45334 14.8527 4.67847 14.94 4.854 15.0084L5.94306 12.2131ZM6.31368 12.3605C6.18772 12.3083 6.05688 12.2574 5.94305 12.2131L4.854 15.0084C4.97398 15.0552 5.0745 15.0944 5.16602 15.1323L6.31368 12.3605ZM6.47093 12.404C6.37906 12.3747 6.27959 12.343 6.18046 12.3125L5.29923 15.1802C5.38106 15.2053 5.46564 15.2323 5.56025 15.2624L6.47093 12.404ZM7.81599 12.6332C7.77827 12.6539 7.69392 12.6895 7.46184 12.6621C7.20015 12.6313 6.90637 12.5427 6.47094 12.404L5.56025 15.2624C5.94265 15.3843 6.51376 15.5712 7.11099 15.6415C7.73784 15.7154 8.50644 15.6776 9.2627 15.2613L7.81599 12.6332ZM11.4412 10.2396C10.2018 11.1118 9.02674 11.9374 7.79219 12.6466L9.28651 15.2479C10.6605 14.4586 11.9472 13.5518 13.1677 12.6929L11.4412 10.2396ZM12.6644 9.38471C12.252 9.66891 11.8431 9.95668 11.4412 10.2395L13.1677 12.6929C13.5717 12.4086 13.9685 12.1294 14.3667 11.855L12.6644 9.38471ZM12.7635 9.31993C12.739 9.33577 12.7216 9.34707 12.7071 9.35636L14.324 11.8833C14.3475 11.8683 14.3729 11.8518 14.3953 11.8373L12.7635 9.31993ZM15.7998 11.1189C15.8614 10.9704 15.939 10.7523 15.9662 10.4977C15.9913 10.263 15.9977 9.75156 15.6206 9.28423C15.2166 8.78356 14.6718 8.69531 14.3847 8.69195C14.1064 8.6887 13.8789 8.75499 13.7596 8.79475C13.3348 8.93631 12.8719 9.24968 12.7635 9.31993L14.3953 11.8373C14.4848 11.7793 14.5685 11.7254 14.6488 11.6788C14.746 11.6223 14.7583 11.6241 14.7081 11.6409C14.6895 11.6471 14.5528 11.6941 14.3496 11.6917C14.1376 11.6893 13.6522 11.622 13.2859 11.1682C12.9466 10.7477 12.9693 10.309 12.9832 10.1786C12.9993 10.0284 13.0384 9.9463 13.0281 9.97112L15.7998 11.1189ZM13.2815 13.7193C14.0051 13.0654 14.7858 12.3612 15.5209 11.5573L13.307 9.53279C12.6837 10.2144 12.0093 10.8254 11.2699 11.4937L13.2815 13.7193ZM11.8579 15.0436C12.314 14.594 12.7848 14.1682 13.2815 13.7193L11.2699 11.4937C10.7806 11.9359 10.2619 12.4044 9.75208 12.9068L11.8579 15.0436ZM11.4876 14.4309C11.5922 14.5371 11.6813 14.7005 11.7072 14.8907C11.7302 15.059 11.6939 15.1723 11.6818 15.2045C11.6696 15.2371 11.6651 15.2342 11.6876 15.2051C11.7086 15.1779 11.7337 15.1534 11.7508 15.1394L9.85909 12.811C9.50085 13.1021 9.09277 13.5647 8.87286 14.1511C8.62973 14.7994 8.58898 15.7625 9.34942 16.5352L11.4876 14.4309ZM14.5438 16.4797C13.4406 15.7377 12.3503 15.0044 11.2788 14.2542L9.55826 16.7118C10.6566 17.4808 11.7702 18.2297 12.8695 18.969L14.5438 16.4797ZM15.6205 17.2049C15.2615 16.9624 14.9019 16.7206 14.5438 16.4797L12.8695 18.969C13.2281 19.2102 13.5851 19.4504 13.9413 19.6909L15.6205 17.2049ZM14.9903 17.5239C15.0254 17.3246 15.1575 17.2233 15.2437 17.1887C15.3363 17.1516 15.535 17.1306 15.7168 17.2757L13.845 19.6201C15.4009 20.8624 17.6274 19.8455 17.9448 18.0446L14.9903 17.5239ZM15.1672 16.4879C15.1077 16.8357 15.0482 17.1839 14.9888 17.5323L17.9462 18.0362C18.0054 17.6889 18.0648 17.3416 18.1243 16.9937L15.1672 16.4879ZM16.1108 10.7433C15.8228 12.6547 15.4964 14.5631 15.1672 16.4879L18.1243 16.9937C18.4527 15.0738 18.7841 13.136 19.0773 11.1902L16.1108 10.7433ZM16.2392 9.83947C16.1947 10.14 16.1481 10.4552 16.1066 10.7726L19.0814 11.1609C19.1189 10.8732 19.1618 10.5834 19.2069 10.2786L16.2392 9.83947ZM16.4758 7.7846C16.4459 8.43369 16.3497 9.09303 16.2392 9.83946L19.2069 10.2786C19.3135 9.55794 19.4346 8.74839 19.4726 7.92248L16.4758 7.7846ZM16.9719 8.86795C17.0422 8.84455 17.1172 8.82462 17.1827 8.81322C17.2555 8.80056 17.269 8.80674 17.2339 8.80308C17.2033 8.79989 17.0203 8.77699 16.8208 8.61207C16.5877 8.41943 16.5019 8.17517 16.4847 8.03063L19.4637 7.67645C19.4028 7.16392 19.1726 6.6639 18.7321 6.29978C18.3252 5.96339 17.8716 5.85329 17.5449 5.81924C16.9264 5.7548 16.3335 5.9185 16.0235 6.02181L16.9719 8.86795ZM9.48388 11.9033C11.9953 10.844 14.5033 9.80869 17.0312 8.84682L15.9643 6.04294C13.3869 7.02366 10.8407 8.075 8.31797 9.13909L9.48388 11.9033ZM8.63597 12.2754C8.9263 12.1487 9.21906 12.0209 9.50852 11.8926L8.29333 9.14974C8.01251 9.27416 7.72719 9.39874 7.43555 9.52607L8.63597 12.2754Z" fill="black" mask="url(#path-1-inside-1_1637_39676)"/>
</svg>
